<?xml version="1.0" encoding="iso-8859-1"?>
<!-- Generator: Adobe Illustrator 19.1.0, SVG Export Plug-In . SVG Version: 6.00 Build 0)  -->
<svg version="1.1" id="Capa_1" xmlns="http://www.w3.org/2000/svg" xmlns:xlink="http://www.w3.org/1999/xlink" x="0px" y="0px"
	 viewBox="0 0 68.6 68.6" style="enable-background:new 0 0 68.6 68.6;" xml:space="preserve">
<g>
	<path style="fill:#FFDD00;" d="M47.646,38.579H28.645v4.932c1.368,1.055,2.262,2.654,2.262,4.468c0,3.18-2.691,5.758-6.01,5.758
		c-3.319,0-6.01-2.578-6.01-5.758c0-2.036,1.109-3.815,2.774-4.839v-4.56h-7.493l-3.965,24.077c-0.354,2.15,1.381,4.095,3.653,4.095
		h34.104c2.272,0,4.007-1.945,3.653-4.095L47.646,38.579z"/>
	<path style="fill:#231F20;" d="M50.652,58.244c-0.362,0-0.719-0.106-1.026-0.311c-0.43-0.286-0.72-0.74-0.8-1.25l-3.457-21.915
		c-0.081-0.51,0.057-1.032,0.377-1.437c0.321-0.405,0.797-0.657,1.312-0.696c6.923-0.509,13.026,4.491,13.853,11.398v0.001
		c0.78,6.521-3.443,12.607-9.822,14.157C50.944,58.227,50.797,58.244,50.652,58.244z M49.368,36.394l2.762,17.509
		c3.461-1.707,5.584-5.455,5.109-9.429l0,0C56.73,40.227,53.438,36.984,49.368,36.394z"/>
	<path style="fill:#231F20;" d="M47.959,68.6H13.854c-1.624,0-3.161-0.709-4.216-1.943c-1.056-1.235-1.516-2.864-1.263-4.469
		l5.489-34.787c0.142-0.899,0.916-1.561,1.826-1.561h5.969c1.021,0,1.849,0.828,1.849,1.849v14.416c0,0.63-0.32,1.215-0.85,1.555
		c-1.204,0.775-1.924,2.081-1.924,3.496c0,2.294,1.867,4.161,4.161,4.161s4.162-1.866,4.162-4.161c0-1.244-0.573-2.419-1.572-3.223
		c-0.436-0.351-0.69-0.881-0.69-1.44V27.69c0-1.021,0.828-1.849,1.849-1.849h5.803c1.021,0,1.849,0.828,1.849,1.849v4.545
		c0,0.722,0.587,1.31,1.31,1.31c0.722,0,1.31-0.588,1.31-1.31V27.69c0-1.021,0.828-1.849,1.849-1.849h5.357
		c0.91,0,1.684,0.662,1.826,1.561l5.488,34.786c0.254,1.604-0.206,3.233-1.26,4.468C51.121,67.891,49.584,68.6,47.959,68.6z
		 M17.271,29.539l-5.244,33.226c-0.085,0.543,0.064,1.072,0.421,1.49c0.358,0.418,0.856,0.648,1.405,0.648h34.105
		c0.55,0,1.049-0.23,1.406-0.648c0.356-0.418,0.506-0.947,0.42-1.489l-5.242-33.226h-1.927v2.696c0,2.762-2.246,5.008-5.008,5.008
		c-2.762,0-5.008-2.246-5.008-5.008v-2.696h-2.105v12.137c1.447,1.467,2.262,3.419,2.262,5.481c0,4.334-3.526,7.859-7.86,7.859
		s-7.86-3.525-7.86-7.859c0-2.326,1.021-4.493,2.774-5.979V29.539H17.271z"/>
	<path style="fill:#231F20;" d="M24.896,55.016c-4.334,0-7.86-3.525-7.86-7.859c0-2.326,1.021-4.493,2.774-5.979V29.539h-2.603
		c-5.299,0-9.611-4.311-9.611-9.61c0-3.47,1.872-6.644,4.845-8.342C13.915,4.917,19.944,0,26.849,0
		c4.205,0,8.227,1.829,11.015,4.953c0.766-0.217,1.553-0.326,2.356-0.326c3.87,0,7.273,2.606,8.369,6.232
		c3.791,1.331,6.434,4.97,6.434,9.069c0,5.299-4.311,9.61-9.61,9.61h-2.798v2.696c0,2.762-2.246,5.008-5.008,5.008
		c-2.762,0-5.008-2.246-5.008-5.008v-2.696h-2.105v12.137c1.447,1.467,2.262,3.419,2.262,5.481
		C32.756,51.491,29.23,55.016,24.896,55.016z M26.849,3.698c-5.42,0-10.118,4.042-10.929,9.402
		c-0.095,0.627-0.504,1.161-1.085,1.416c-2.151,0.944-3.54,3.069-3.54,5.412c0,3.26,2.653,5.912,5.913,5.912h4.452
		c1.021,0,1.849,0.828,1.849,1.849v14.416c0,0.63-0.32,1.215-0.85,1.555c-1.205,0.775-1.924,2.081-1.924,3.496
		c0,2.294,1.867,4.161,4.161,4.161s4.162-1.866,4.162-4.161c0-1.244-0.573-2.419-1.572-3.223c-0.436-0.351-0.69-0.881-0.69-1.44
		V27.69c0-1.021,0.828-1.849,1.849-1.849h5.803c1.021,0,1.849,0.828,1.849,1.849v4.545c0,0.722,0.587,1.31,1.31,1.31
		c0.722,0,1.31-0.588,1.31-1.31V27.69c0-1.021,0.828-1.849,1.849-1.849h4.647c3.26,0,5.912-2.653,5.912-5.912
		c0-2.775-1.967-5.206-4.678-5.781c-0.754-0.16-1.329-0.771-1.444-1.533c-0.368-2.446-2.51-4.289-4.983-4.289
		c-0.745,0-1.472,0.166-2.16,0.493c-0.804,0.382-1.762,0.139-2.286-0.577C33.658,5.354,30.405,3.698,26.849,3.698z"/>
	<path style="fill:#231F20;" d="M20.326,39.192c-0.332,0-0.616-0.271-0.616-0.616c0-0.333,0.284-0.616,0.616-0.616
		c0.346,0,0.616,0.284,0.616,0.616C20.942,38.921,20.671,39.192,20.326,39.192z M16.627,39.192h-2.465
		c-0.332,0-0.616-0.271-0.616-0.616c0-0.333,0.284-0.616,0.616-0.616h2.465c0.346,0,0.616,0.284,0.616,0.616
		C17.244,38.921,16.973,39.192,16.627,39.192z"/>
	<path style="fill:#231F20;" d="M44.671,39.192h-1.233c-0.344,0-0.616-0.271-0.616-0.616c0-0.333,0.272-0.616,0.616-0.616h1.233
		c0.333,0,0.616,0.284,0.616,0.616C45.288,38.921,45.005,39.192,44.671,39.192z M40.973,39.192c-0.344,0-0.616-0.271-0.616-0.616
		c0-0.333,0.272-0.616,0.616-0.616c0.333,0,0.616,0.284,0.616,0.616C41.59,38.921,41.307,39.192,40.973,39.192z M37.275,39.192
		h-1.233c-0.344,0-0.616-0.271-0.616-0.616c0-0.333,0.272-0.616,0.616-0.616h1.233c0.333,0,0.616,0.284,0.616,0.616
		C37.891,38.921,37.608,39.192,37.275,39.192z M33.577,39.192c-0.344,0-0.616-0.271-0.616-0.616c0-0.333,0.272-0.616,0.616-0.616
		c0.333,0,0.616,0.284,0.616,0.616C34.193,38.921,33.91,39.192,33.577,39.192z M29.879,39.192h-1.233
		c-0.344,0-0.616-0.271-0.616-0.616c0-0.333,0.272-0.616,0.616-0.616h1.233c0.333,0,0.616,0.284,0.616,0.616
		C30.495,38.921,30.212,39.192,29.879,39.192z"/>
</g>
<g>
</g>
<g>
</g>
<g>
</g>
<g>
</g>
<g>
</g>
<g>
</g>
<g>
</g>
<g>
</g>
<g>
</g>
<g>
</g>
<g>
</g>
<g>
</g>
<g>
</g>
<g>
</g>
<g>
</g>
</svg>
