<?xml version="1.0" encoding="iso-8859-1"?>
<!-- Generator: Adobe Illustrator 19.0.0, SVG Export Plug-In . SVG Version: 6.00 Build 0)  -->
<svg version="1.1" id="Layer_1" xmlns="http://www.w3.org/2000/svg" xmlns:xlink="http://www.w3.org/1999/xlink" x="0px" y="0px"
	 viewBox="0 0 511.999 511.999" style="enable-background:new 0 0 511.999 511.999;" xml:space="preserve">
<circle style="fill:#F4B2B0;" cx="255.997" cy="255.997" r="167.991"/>
<g>
	<path style="fill:#B3404A;" d="M255.999,0c-7.663,0-13.877,6.213-13.877,13.877s6.214,13.877,13.877,13.877
		c57.945,0,110.905,21.716,151.199,57.422l-32.782,32.781c-32.95-28.356-74.49-43.824-118.416-43.824
		c-45.157,0-86.517,16.548-118.35,43.892L95.044,75.42c-0.074-0.074-0.155-0.136-0.23-0.208c-0.072-0.075-0.135-0.157-0.208-0.23
		c-5.42-5.419-14.204-5.419-19.626,0C26.628,123.334,0,187.622,0,255.999c0,141.159,114.842,255.999,255.999,255.999
		c68.38,0,132.668-26.628,181.02-74.981s74.98-112.64,74.98-181.018C512,114.842,397.158,0,255.999,0z M365.043,147.093
		c5.415,5.422,14.2,5.429,19.624,0.011c0.402-0.402,0.766-0.828,1.109-1.264c0.029-0.029,0.061-0.053,0.09-0.082l40.958-40.957
		c32.834,37.053,53.823,84.82,56.987,137.322h-15.439c-7.663,0-13.877,6.213-13.877,13.877s6.214,13.877,13.877,13.877h15.445
		c-3.047,51.144-22.905,99.081-56.914,137.401l-32.929-32.929c27.344-31.833,43.892-73.192,43.892-118.35
		c0-7.664-6.214-13.877-13.877-13.877s-13.877,6.213-13.877,13.877c0,84.978-69.135,154.114-154.114,154.114
		s-154.114-69.135-154.114-154.114s69.135-154.114,154.114-154.114C297.201,101.887,335.926,117.942,365.043,147.093z
		 M255.999,453.157c-7.663,0-13.877,6.213-13.877,13.877v16.777c-52.502-3.165-100.27-24.154-137.322-56.987l32.85-32.849
		c31.833,27.344,73.192,43.892,118.35,43.892s86.517-16.548,118.35-43.892l32.929,32.929
		c-38.319,34.009-86.257,53.866-137.402,56.914v-16.782C269.876,459.37,263.663,453.157,255.999,453.157z M28.188,269.876h46.47
		c3.011,39.73,18.85,75.932,43.367,104.473l-32.85,32.85C52.341,370.146,31.353,322.38,28.188,269.876z M85.096,104.722
		l32.929,32.929c-24.516,28.542-40.355,64.743-43.367,104.473H28.182C31.229,190.98,51.087,143.042,85.096,104.722z"/>
	<path style="fill:#B3404A;" d="M317.288,205.312c-0.871-0.871-1.989-1.309-3.351-1.309h-22.117
		c-1.651-8.053-4.756-15.052-9.32-20.966h31.139c1.363,0,2.48-0.438,3.351-1.309c0.873-0.873,1.309-1.99,1.309-3.351v-14.855
		c0-1.36-0.436-2.477-1.309-3.351c-0.871-0.871-1.989-1.309-3.351-1.309H198.063c-1.36,0-2.477,0.439-3.351,1.309
		c-0.873,0.873-1.309,1.99-1.309,3.351v19.363c0,1.267,0.462,2.356,1.388,3.282c0.916,0.916,2.008,1.378,3.272,1.378h18.331
		c20.479,0,33.49,5.48,39.023,16.448h-57.354c-1.36,0-2.477,0.438-3.351,1.318c-0.873,0.873-1.309,1.982-1.309,3.342v14.852
		c0,1.36,0.436,2.477,1.309,3.351c0.873,0.871,1.99,1.309,3.351,1.309h59.395c-2.138,7.965-7.113,14.031-14.931,18.201
		c-7.81,4.171-18.123,6.265-30.932,6.265h-13.533c-1.264,0-2.356,0.454-3.272,1.378c-0.924,0.924-1.388,2.015-1.388,3.282v15.282
		c0,2.07,0.74,4.073,2.084,5.646l60.513,73.169c0.873,1.161,2.084,1.747,3.638,1.747h28.394c2.033,0,3.447-0.873,4.213-2.627
		c0.978-1.744,0.787-3.396-0.574-4.948c-28.343-34.747-42.174-50.032-58.385-67.309c16.499-1.939,29.893-7.278,40.183-16.012
		c10.287-8.737,16.552-20.098,18.786-34.066h21.681c1.363,0,2.48-0.438,3.351-1.318c0.873-0.873,1.309-1.99,1.309-3.342v-14.852
		C318.597,207.302,318.161,206.185,317.288,205.312L317.288,205.312z"/>
</g>
<g>
</g>
<g>
</g>
<g>
</g>
<g>
</g>
<g>
</g>
<g>
</g>
<g>
</g>
<g>
</g>
<g>
</g>
<g>
</g>
<g>
</g>
<g>
</g>
<g>
</g>
<g>
</g>
<g>
</g>
</svg>
