<?xml version="1.0" encoding="iso-8859-1"?>
<!-- Generator: Adobe Illustrator 19.0.0, SVG Export Plug-In . SVG Version: 6.00 Build 0)  -->
<svg xmlns="http://www.w3.org/2000/svg" xmlns:xlink="http://www.w3.org/1999/xlink" version="1.1" id="Capa_1" x="0px" y="0px" viewBox="0 0 470.017 470.017" style="enable-background:new 0 0 470.017 470.017;" xml:space="preserve" width="512" height="512">
<g>
	<path style="fill:#CCECFF;" d="M159.477,88.683c15.846,15.818,18.816,39.605,8.945,58.442l156.872,156.872l-21.213,21.213   L147.209,168.338l-8.945-58.442L78.259,49.891L78.217,7.507L159.477,88.683z"/>
	<path style="fill:#EDF8FF;" d="M138.264,109.896c15.846,15.818,18.816,39.605,8.945,58.442c-18.88,9.744-42.582,6.802-58.393-8.994   L7.499,78.126h42.525l60.005,60.005L138.264,109.896z"/>
	
		<rect x="210.446" y="153.647" transform="matrix(-0.7071 -0.7071 0.7071 -0.7071 211.8433 577.1075)" style="fill:#99D9FF;" width="29.996" height="182.066"/>
	<path style="fill:#B1786B;" d="M155.362,300.504l12.374,40.659L54.599,454.299c-10.861,10.847-28.369,10.96-39.11,0.219   L155.362,300.504z"/>
	<path style="fill:#FDA162;" d="M128.853,302.279l33.581,5.296L15.489,454.519c-10.734-10.734-10.635-28.242,0.226-39.103   L128.853,302.279z"/>
	<polygon style="fill:#99D9FF;" points="169.504,300.504 188.95,319.949 167.736,341.162 148.291,321.717 151.826,304.039  "/>
	
		<rect x="135.433" y="286.391" transform="matrix(-0.7071 -0.7071 0.7071 -0.7071 41.5476 619.9919)" style="fill:#CCECFF;" width="27.49" height="30"/>
	<path style="fill:#B1786B;" d="M300.503,314.641l40.659-12.374l113.137,113.137c10.847,10.861,10.96,28.369,0.219,39.11   L300.503,314.641z"/>
	<path style="fill:#FDA162;" d="M302.278,341.15l5.296-33.581l146.944,146.944c-10.734,10.734-28.242,10.635-39.103-0.226   L302.278,341.15z"/>
	<polygon style="fill:#99D9FF;" points="300.503,300.499 319.949,281.053 341.162,302.266 321.716,321.712 304.039,318.176  "/>
	
		<rect x="287.646" y="305.824" transform="matrix(-0.7071 0.7071 -0.7071 -0.7071 741.363 334.5661)" style="fill:#CCECFF;" width="27.49" height="30"/>
	<path style="fill:#99D9FF;" d="M291.217,200.105l21.213,21.213c11.667,11.667,30.752,11.66,42.412-0.014l98.91-98.981   c11.66-11.674,11.667-30.773,0-42.441l-21.199-21.227L291.217,200.105z"/>
	<path style="fill:#CCECFF;" d="M347.792,16.264c11.66-11.674,30.752-11.674,42.412,0l42.349,42.391   c11.653,11.681,11.646,30.78-0.014,42.455l-98.91,98.981c-11.66,11.674-30.745,11.681-42.412,0.014l-42.377-42.377   c-11.667-11.667-11.667-30.759-0.007-42.433L347.792,16.264z"/>
	<path d="M325.252,275.76c-1.407-1.406-3.314-2.196-5.304-2.196s-3.896,0.79-5.304,2.196l-3.49,3.49l-44.233-44.232l24.299-24.301   l15.904,15.903c7.058,7.058,16.473,10.944,26.509,10.944c10.041,0,19.46-3.891,26.519-10.955l98.906-98.982   c14.613-14.625,14.614-38.421,0.002-53.046l-63.555-63.617C388.446,3.901,379.031,0.01,368.993,0.01   c-10.037,0-19.452,3.89-26.509,10.953l-98.957,99.032c-14.614,14.626-14.609,38.419,0.01,53.04l15.864,15.864L235.103,203.2   l-57.68-57.68c8.663-21.265,3.89-45.629-12.644-62.142L83.513,2.202c-2.146-2.144-5.374-2.783-8.176-1.62s-4.627,3.9-4.625,6.935   l0.043,42.383c0.002,1.986,0.792,3.891,2.197,5.296l54.706,54.704l-17.633,17.633L55.32,72.827   c-1.406-1.406-3.314-2.196-5.303-2.196L7.501,70.629c-3.035,0-5.77,1.828-6.93,4.632c-1.161,2.804-0.518,6.03,1.629,8.175   l81.312,81.223c16.464,16.443,40.792,21.214,62.042,12.634l41.821,41.821c1.464,1.464,3.384,2.196,5.303,2.196   s3.839-0.732,5.303-2.196c2.929-2.93,2.929-7.678,0-10.607l-45.509-45.509c-2.313-2.313-5.857-2.858-8.76-1.353   c-16.522,8.583-36.457,5.528-49.601-7.6L25.622,85.63l21.289,0.001l57.812,57.812c2.929,2.928,7.678,2.928,10.606,0l28.24-28.239   c1.407-1.407,2.197-3.314,2.197-5.304s-0.79-3.896-2.197-5.304L85.753,46.782L85.732,25.62l68.447,68.372   c13.198,13.181,16.25,33.134,7.596,49.649c-1.523,2.906-0.98,6.465,1.34,8.785l61.382,61.381l-65.543,65.551l-3.594-3.594   c-1.406-1.406-3.314-2.196-5.303-2.196s-3.897,0.79-5.303,2.196l-21.208,21.208c-0.011,0.011-113.143,113.143-113.143,113.143   c-13.764,13.765-13.861,36.064-0.216,49.712c6.565,6.565,15.32,10.182,24.65,10.182c9.446,0,18.346-3.692,25.06-10.398   l134.35-134.351c2.929-2.93,2.929-7.678,0-10.607l-3.477-3.477l65.543-65.549l44.233,44.232l-10.606,10.606l-28.323-28.323   c-2.93-2.928-7.678-2.928-10.607,0c-2.929,2.93-2.929,7.678,0,10.607l28.323,28.323l-3.577,3.577   c-1.406,1.407-2.196,3.314-2.196,5.304s0.79,3.896,2.196,5.304l21.211,21.211c0.003,0.003,113.139,113.138,113.139,113.138   c6.709,6.708,15.606,10.402,25.054,10.403c9.331,0,18.088-3.618,24.658-10.188c13.637-13.638,13.54-35.936-0.218-49.711   L325.252,275.76z M254.138,120.598l98.957-99.033c4.223-4.227,9.869-6.555,15.897-6.555c6.029,0,11.676,2.329,15.899,6.556   l63.555,63.617c8.771,8.779,8.771,23.063-0.002,31.842l-98.906,98.982c-4.225,4.229-9.874,6.558-15.907,6.558   c-6.03,0-11.678-2.327-15.902-6.552l-21.204-21.204c-0.006-0.006-21.209-21.208-21.209-21.208   c-0.013-0.013-21.172-21.172-21.172-21.172C245.371,143.655,245.368,129.376,254.138,120.598z M49.294,449   c-3.879,3.875-9.013,6.009-14.456,6.009c-5.323,0-10.311-2.056-14.043-5.788c-7.797-7.798-7.701-20.582,0.215-28.498   l107.834-107.834l28.281,28.281L49.294,449z M167.731,330.562l-28.281-28.281l10.606-10.606l3.59,3.59   c0.008,0.008,21.213,21.214,21.213,21.214c0.001,0.001,3.477,3.477,3.477,3.477L167.731,330.562z M169.56,289.965l70.811-70.82   c0.069-0.069,29.636-29.639,29.636-29.639l10.605,10.605l-29.58,29.583c-0.044,0.044-70.869,70.875-70.869,70.875L169.56,289.965z    M316.448,295.171c0.019-0.019,3.5-3.5,3.5-3.5l10.606,10.606l-28.281,28.281l-10.606-10.606L316.448,295.171z M449.213,449.214   c-3.737,3.737-8.728,5.795-14.052,5.795c-5.44,0-10.571-2.135-14.446-6.011L312.88,341.165l28.281-28.281l107.83,107.83   C456.905,428.637,457.004,441.422,449.213,449.214z"/>
	<path d="M335.576,187.551c-2.272,2.127-3.061,5.54-1.717,8.541c1.247,2.784,3.983,4.437,6.849,4.437   c1.024,0,2.065-0.211,3.062-0.657c1.282-0.574,1.282-0.574,15.519-14.802l71.548-71.537c2.929-2.929,2.929-7.678-0.001-10.606   c-2.928-2.928-7.677-2.929-10.606,0.001C391.931,131.226,338.436,184.717,335.576,187.551z"/>
	<path d="M277.095,136.924c2.067,0,4.066-0.86,5.487-2.382c2.832-2.865,56.297-56.43,84.573-84.755   c2.927-2.932,2.923-7.681-0.009-10.606c-2.933-2.929-7.682-2.922-10.606,0.009l-71.496,71.636   c-14.243,14.276-14.243,14.276-14.818,15.596c-1.658,3.796,0.076,8.217,3.872,9.874   C275.075,136.721,276.094,136.924,277.095,136.924z"/>
	<path d="M312.681,168.876c-1.658,3.796,0.076,8.217,3.872,9.874c0.977,0.427,1.995,0.629,2.997,0.629   c2.067,0,4.066-0.86,5.487-2.382c2.832-2.865,56.297-56.43,84.573-84.755c2.927-2.932,2.923-7.681-0.009-10.606   c-2.932-2.928-7.681-2.921-10.606,0.009L327.5,153.28C313.257,167.556,313.257,167.556,312.681,168.876z"/>
	<path d="M291.469,147.663c-1.658,3.796,0.076,8.217,3.872,9.874c0.977,0.427,1.995,0.629,2.997,0.629   c2.067,0,4.066-0.86,5.487-2.382c2.832-2.865,56.297-56.43,84.573-84.755c2.927-2.932,2.923-7.681-0.009-10.606   c-2.932-2.929-7.681-2.922-10.606,0.009l-71.496,71.636C292.044,146.343,292.044,146.343,291.469,147.663z"/>
</g>















</svg>
