<?xml version="1.0" encoding="iso-8859-1"?>
<!-- Generator: Adobe Illustrator 19.0.0, SVG Export Plug-In . SVG Version: 6.00 Build 0)  -->
<svg version="1.1" id="Layer_1" xmlns="http://www.w3.org/2000/svg" xmlns:xlink="http://www.w3.org/1999/xlink" x="0px" y="0px"
	 viewBox="0 0 512 512" style="enable-background:new 0 0 512 512;" xml:space="preserve">
<path style="fill:#415E5C;" d="M239.898,388.413v113.57c0,5.532-4.494,10.016-10.039,10.016c-5.544,0-10.039-4.484-10.039-10.016
	v-113.57c0-5.532,4.494-10.016,10.039-10.016S239.898,382.881,239.898,388.413z M285.229,378.397
	c-5.544,0-10.039,4.484-10.039,10.016v113.57c0,5.532,4.494,10.016,10.039,10.016s10.039-4.484,10.039-10.016v-113.57
	C295.267,382.881,290.773,378.397,285.229,378.397z"/>
<path style="fill:#0D3131;" d="M239.9,501.981c0,5.532-4.494,10.016-10.039,10.016h-30.723c-5.544,0-10.039-4.484-10.039-10.016
	s4.494-10.016,10.039-10.016h30.723C235.405,491.965,239.9,496.449,239.9,501.981z M315.948,491.965H285.23
	c-5.544,0-10.039,4.484-10.039,10.016s4.494,10.016,10.039,10.016h30.719c5.544,0,10.039-4.484,10.039-10.016
	S321.494,491.965,315.948,491.965z"/>
<path style="fill:#D1141C;" d="M292.23,353.016v-0.003H256h-36.23v0.003l-20.168-160.148l0,0c36.625,12.072,76.17,12.072,112.796,0
	l0,0L292.23,353.016z"/>
<path style="fill:#FFBB5E;" d="M179.69,138.984c1.913,5.192-0.752,10.949-5.956,12.859c-1.143,0.42-2.314,0.619-3.465,0.619
	c-4.088,0-7.929-2.51-9.423-6.561L115.255,22.225c-1.913-5.192,0.752-10.949,5.956-12.859c5.203-1.909,10.973,0.751,12.887,5.943
	L179.69,138.984z M393.882,9.366c-5.203-1.909-10.973,0.751-12.887,5.943l-45.591,123.675c-1.913,5.192,0.752,10.949,5.956,12.859
	c1.143,0.42,2.314,0.619,3.465,0.619c4.088,0,7.929-2.51,9.423-6.561l45.591-123.675C401.752,17.033,399.085,11.276,393.882,9.366z"
	/>
<path style="fill:#A7141C;" d="M354.245,145.901c-8.171,22.16-16.829,37.886-27.246,49.491
	c-14.104,15.714-31.615,23.681-52.044,23.681h-34.818c-20.432,0-37.941-7.967-52.046-23.681
	c-10.416-11.606-19.073-27.332-27.244-49.493c-1.914-5.191,0.751-10.948,5.955-12.859c5.202-1.912,10.973,0.75,12.887,5.941
	c15.523,42.096,33.599,60.058,60.446,60.058h34.82c26.847,0,44.925-17.961,60.448-60.059c1.913-5.191,7.683-7.853,12.888-5.941
	C353.494,134.952,356.159,140.709,354.245,145.901z"/>
<path style="fill:#FFCE76;" d="M257.546,86.837c19.906,0,36.044,16.1,36.044,35.961s-16.138,35.961-36.044,35.961
	s-36.039-16.1-36.039-35.961C221.507,102.938,237.64,86.837,257.546,86.837L257.546,86.837z"/>
<path style="fill:#FFBB5E;" d="M293.59,122.798c0,19.861-16.138,35.961-36.044,35.961c-14.53,0-27.041-8.584-32.745-20.941
	c4.581,2.105,9.676,3.287,15.051,3.287c19.906,0,36.044-16.1,36.044-35.961c0-5.363-1.185-10.447-3.295-15.018
	C284.987,95.816,293.59,108.301,293.59,122.798z"/>
<path style="fill:#AFBAB4;" d="M495.304,45.976c0,5.532-4.494,10.017-10.039,10.017H26.734c-5.544,0-10.039-4.484-10.039-10.017
	c0-5.532,4.494-10.016,10.039-10.016h458.532C490.81,35.96,495.304,40.445,495.304,45.976z"/>
<path style="fill:#415E5C;" d="M59.405,25.553v40.848c0,5.532-4.494,10.016-10.039,10.016s-10.039-4.484-10.039-10.016V25.553
	c0-5.532,4.494-10.016,10.039-10.016C54.911,15.537,59.405,20.021,59.405,25.553z M462.629,15.537
	c-5.544,0-10.039,4.484-10.039,10.016v40.848c0,5.532,4.494,10.016,10.039,10.016c5.544,0,10.039-4.484,10.039-10.016V25.553
	C472.667,20.021,468.174,15.537,462.629,15.537z"/>
<path style="fill:#234848;" d="M76.73,10.016v71.923c0,5.532-4.494,10.016-10.039,10.016s-10.039-4.484-10.039-10.016V10.016
	C56.653,4.484,61.147,0,66.691,0S76.73,4.484,76.73,10.016z M445.308,0c-5.544,0-10.039,4.484-10.039,10.016v71.923
	c0,5.532,4.494,10.016,10.039,10.016c5.544,0,10.039-4.484,10.039-10.016V10.016C455.346,4.484,450.852,0,445.308,0z"/>
<g>
</g>
<g>
</g>
<g>
</g>
<g>
</g>
<g>
</g>
<g>
</g>
<g>
</g>
<g>
</g>
<g>
</g>
<g>
</g>
<g>
</g>
<g>
</g>
<g>
</g>
<g>
</g>
<g>
</g>
</svg>
